Coordinates
version=1
nRows=80
nColumns=8
inDegrees=no

Units are S.I. units (second, meters, Newtons, ...)
Angles are in radian.

endheader
time	ra_sh_e_f	ra_sh_ad_ab	ra_sh_ext_int	ra_el_e_f	ra_wr_e_f	ra_wr_s_p	ra_wr_ad_ab
      1.55714286	      0.45697236	      0.06862337	     -0.13113412	      0.28246874	      0.28246874	     -0.04256183	      0.34006861
      1.55918367	      0.45722328	      0.06867939	     -0.13118162	      0.28267755	      0.28267755	     -0.04255199	      0.33976616
      1.56122449	      0.45730841	      0.06870288	     -0.13114129	      0.28290562	      0.28290562	     -0.04250019	      0.33887135
      1.56326531	      0.45759070	      0.06874263	     -0.13101628	      0.28329902	      0.28329902	     -0.04233616	      0.33871946
      1.56530612	      0.45772064	      0.06875649	     -0.13098402	      0.28345227	      0.28345227	     -0.04231167	      0.33809350
      1.56734694	      0.45789091	      0.06879945	     -0.13086080	      0.28392991	      0.28392991	     -0.04215366	      0.33875037
      1.56938776	      0.45805670	      0.06883900	     -0.13062511	      0.28443265	      0.28443265	     -0.04200770	      0.33903759
      1.57142857	      0.45825833	      0.06889321	     -0.13064348	      0.28483861	      0.28483861	     -0.04197698	      0.33914065
      1.57346939	      0.45837483	      0.06892814	     -0.13050592	      0.28534314	      0.28534314	     -0.04189748	      0.33953674
      1.57551020	      0.45857646	      0.06895886	     -0.13030339	      0.28544216	      0.28544216	     -0.04173907	      0.33966937
      1.57755102	      0.45860783	      0.06897793	     -0.13019585	      0.28588396	      0.28588396	     -0.04168848	      0.33982127
      1.57959184	      0.45885875	      0.06904479	     -0.13008652	      0.28617835	      0.28617835	     -0.04160395	      0.34003679
      1.58163265	      0.45894836	      0.06907270	     -0.12999422	      0.28656951	      0.28656951	     -0.04157002	      0.34021109
      1.58367347	      0.45904694	      0.06908936	     -0.12986562	      0.28676263	      0.28676263	     -0.04152324	      0.34009370
      1.58571429	      0.45918136	      0.06912731	     -0.12968415	      0.28702072	      0.28702072	     -0.04142447	      0.34010849
      1.58775510	      0.45933819	      0.06918874	     -0.12970297	      0.28716993	      0.28716993	     -0.04142908	      0.34029264
      1.58979592	      0.45939196	      0.06918874	     -0.12965413	      0.28717621	      0.28717621	     -0.04148209	      0.33917649
      1.59183673	      0.45958911	      0.06925118	     -0.12952733	      0.28748717	      0.28748717	     -0.04139274	      0.34021334
      1.59387755	      0.45963840	      0.06928130	     -0.12951792	      0.28755796	      0.28755796	     -0.04139977	      0.33996197
      1.59591837	      0.45984899	      0.06933531	     -0.12943099	      0.28770359	      0.28770359	     -0.04140479	      0.34024022
      1.59795918	      0.45991620	      0.06936221	     -0.12944309	      0.28753198	      0.28753198	     -0.04143410	      0.33922264
      1.60000000	      0.46004166	      0.06941963	     -0.12940680	      0.28783711	      0.28783711	     -0.04141403	      0.34015195
      1.60204082	      0.46016712	      0.06946982	     -0.12941979	      0.28750240	      0.28750240	     -0.04152063	      0.33874993
      1.60408163	      0.46036876	      0.06956378	     -0.12953002	      0.28751898	      0.28751898	     -0.04155637	      0.33927597
      1.60612245	      0.46044493	      0.06961177	     -0.12948969	      0.28764265	      0.28764265	     -0.04156420	      0.33955691
      1.60816327	      0.46060624	      0.06968203	     -0.12945519	      0.28762159	      0.28762159	     -0.04154694	      0.34035045
      1.61020408	      0.46064656	      0.06972159	     -0.12963576	      0.28728016	      0.28728016	     -0.04174871	      0.33887225
      1.61224490	      0.46084819	      0.06980250	     -0.12965593	      0.28741906	      0.28741906	     -0.04172442	      0.33926163
      1.61428571	      0.46096917	      0.06989726	     -0.12985308	      0.28716500	      0.28716500	     -0.04181677	      0.33871050
      1.61632653	      0.46104087	      0.06995629	     -0.12979617	      0.28720264	      0.28720264	     -0.04173405	      0.33968461
      1.61836735	      0.46119769	      0.07001310	     -0.12968460	      0.28714708	      0.28714708	     -0.04163246	      0.33984054
      1.62040816	      0.46134556	      0.07009863	     -0.13008384	      0.28673396	      0.28673396	     -0.04188282	      0.33811904
      1.62244898	      0.46146654	      0.07017713	     -0.12995121	      0.28718337	      0.28718337	     -0.04167302	      0.33991402
      1.62448980	      0.46162336	      0.07023676	     -0.13012371	      0.28690871	      0.28690871	     -0.04177621	      0.33969133
      1.62653061	      0.46169505	      0.07028455	     -0.13018107	      0.28675815	      0.28675815	     -0.04177642	      0.33925625
      1.62857143	      0.46188324	      0.07036485	     -0.13027696	      0.28679310	      0.28679310	     -0.04176437	      0.33956363
      1.63061224	      0.46195942	      0.07042448	     -0.13041944	      0.28668332	      0.28668332	     -0.04177340	      0.33951658
      1.63265306	      0.46207592	      0.07048933	     -0.13054670	      0.28668377	      0.28668377	     -0.04178284	      0.33993463
      1.63469388	      0.46219242	      0.07054093	     -0.13064796	      0.28642210	      0.28642210	     -0.04181898	      0.33849497
      1.63673469	      0.46233580	      0.07064734	     -0.13079000	      0.28639118	      0.28639118	     -0.04173164	      0.33913885
      1.63877551	      0.46243438	      0.07068970	     -0.13095175	      0.28631187	      0.28631187	     -0.04180252	      0.33868988
      1.64081633	      0.46259120	      0.07077021	     -0.13093294	      0.28637550	      0.28637550	     -0.04166218	      0.33972269
      1.64285714	      0.46264049	      0.07083466	     -0.13096654	      0.28667302	      0.28667302	     -0.04154673	      0.34125421
      1.64489796	      0.46280180	      0.07092520	     -0.13122777	      0.28648304	      0.28648304	     -0.04162283	      0.33999199
      1.64693878	      0.46287349	      0.07099969	     -0.13125017	      0.28659057	      0.28659057	     -0.04145217	      0.34129678
      1.64897959	      0.46296310	      0.07104627	     -0.13105436	      0.28709242	      0.28709242	     -0.04114961	      0.34431948
      1.65102041	      0.46306616	      0.07111172	     -0.13152574	      0.28649379	      0.28649379	     -0.04145518	      0.34023350
      1.65306122	      0.46320506	      0.07119464	     -0.13173588	      0.28648393	      0.28648393	     -0.04144434	      0.34079852
      1.65510204	      0.46326779	      0.07123800	     -0.13183536	      0.28642658	      0.28642658	     -0.04143671	      0.34011073
      1.65714286	      0.46341566	      0.07132975	     -0.13204729	      0.28638580	      0.28638580	     -0.04144916	      0.34045216
      1.65918367	      0.46342910	      0.07137192	     -0.13207732	      0.28656772	      0.28656772	     -0.04133472	      0.34107633
      1.66122449	      0.46359041	      0.07145604	     -0.13238290	      0.28641224	      0.28641224	     -0.04139997	      0.34001215
      1.66326531	      0.46363969	      0.07149780	     -0.13252225	      0.28633607	      0.28633607	     -0.04141965	      0.33969581
      1.66530612	      0.46368898	      0.07156024	     -0.13279782	      0.28611069	      0.28611069	     -0.04148951	      0.33856398
      1.66734694	      0.46378756	      0.07162649	     -0.13292149	      0.28622853	      0.28622853	     -0.04146020	      0.33863791
      1.66938776	      0.46390854	      0.07168994	     -0.13318899	      0.28612010	      0.28612010	     -0.04152626	      0.33794026
      1.67142857	      0.46394438	      0.07173431	     -0.13305456	      0.28649200	      0.28649200	     -0.04127690	      0.33939157
      1.67346939	      0.46406088	      0.07178289	     -0.13325351	      0.28648214	      0.28648214	     -0.04132047	      0.33968058
      1.67551020	      0.46406088	      0.07182405	     -0.13324365	      0.28658072	      0.28658072	     -0.04121285	      0.34018376
      1.67755102	      0.46421323	      0.07188147	     -0.13350129	      0.28645033	      0.28645033	     -0.04129216	      0.33937857
      1.67959184	      0.46424011	      0.07192002	     -0.13353624	      0.28653501	      0.28653501	     -0.04122851	      0.33998079
      1.68163265	      0.46432525	      0.07196740	     -0.13365722	      0.28664300	      0.28664300	     -0.04119137	      0.34042527
      1.68367347	      0.46434317	      0.07200394	     -0.13363258	      0.28667167	      0.28667167	     -0.04108818	      0.34056283
      1.68571429	      0.46444623	      0.07205072	     -0.13378761	      0.28656459	      0.28656459	     -0.04109781	      0.34023036
      1.68775510	      0.46447759	      0.07208445	     -0.13391128	      0.28641493	      0.28641493	     -0.04110966	      0.33977781
      1.68979592	      0.46456721	      0.07212219	     -0.13398118	      0.28638267	      0.28638267	     -0.04109982	      0.34015419
      1.69183673	      0.46454480	      0.07214006	     -0.13409589	      0.28629036	      0.28629036	     -0.04114218	      0.33971508
      1.69387755	      0.46464786	      0.07219266	     -0.13396460	      0.28660312	      0.28660312	     -0.04094503	      0.34153336
      1.69591837	      0.46467474	      0.07221756	     -0.13421821	      0.28621778	      0.28621778	     -0.04109480	      0.34004531
      1.69795918	      0.46468819	      0.07223904	     -0.13422852	      0.28622763	      0.28622763	     -0.04107191	      0.34051354
      1.70000000	      0.46472851	      0.07226093	     -0.13419670	      0.28618148	      0.28618148	     -0.04103899	      0.34025993
      1.70204082	      0.46482261	      0.07231553	     -0.13432037	      0.28604034	      0.28604034	     -0.04105565	      0.34006995
      1.70408163	      0.46481813	      0.07233441	     -0.13433292	      0.28611517	      0.28611517	     -0.04104421	      0.34043244
      1.70612245	      0.46487638	      0.07236773	     -0.13454306	      0.28578583	      0.28578583	     -0.04121827	      0.33962905
      1.70816327	      0.46485397	      0.07237577	     -0.13453500	      0.28589292	      0.28589292	     -0.04118294	      0.34032401
      1.71020408	      0.46493911	      0.07240909	     -0.13442433	      0.28603093	      0.28603093	     -0.04106368	      0.34130888
      1.71224490	      0.46495703	      0.07243760	     -0.13465060	      0.28583512	      0.28583512	     -0.04120924	      0.34048666
      1.71428571	      0.46493911	      0.07245467	     -0.13457846	      0.28597268	      0.28597268	     -0.04116045	      0.34136175
      1.71632653	      0.46495703	      0.07245648	     -0.13458563	      0.28581765	      0.28581765	     -0.04120623	      0.34051892
      1.71836735	      0.46501528	      0.07251289	     -0.13470706	      0.28574685	      0.28574685	     -0.04123695	      0.34089306
